<svg xmlns="http://www.w3.org/2000/svg" viewBox="0 0 710.31 486.65"><g id="Layer_2" data-name="Layer 2"><g id="logo"><path d="M355.15,486.65c-93.74,0-182.08-24.62-248.75-69.32C37.79,371.33,0,309.53,0,243.32s37.79-128,106.4-174C173.07,24.62,261.41,0,355.15,0S537.24,24.62,603.91,69.32c68.61,46,106.4,107.79,106.4,174s-37.79,128-106.4,174C537.24,462,448.9,486.65,355.15,486.65Zm0-455c-87.54,0-169.63,22.72-231.15,64-59.58,40-92.39,92.42-92.39,147.75S64.42,351.13,124,391.07c61.52,41.25,143.61,64,231.15,64s169.64-22.71,231.16-64c59.58-39.94,92.39-92.41,92.39-147.75s-32.81-107.8-92.39-147.75C524.79,54.33,442.7,31.61,355.15,31.61Z"/><path d="M310.53,161.53q-17.47-12.18-41.5-12.18-20.52,0-35.09,7.69a69.28,69.28,0,0,0-24,20.67A89.1,89.1,0,0,0,196,207.35,132.2,132.2,0,0,0,191.48,242,147.82,147.82,0,0,0,196,279a88.27,88.27,0,0,0,13.94,30.44,68.84,68.84,0,0,0,24.19,20.67q14.73,7.69,35.25,7.69,15.06,0,26.76-5A60.51,60.51,0,0,0,316.29,319a63.26,63.26,0,0,0,13.3-21,87.15,87.15,0,0,0,5.77-26.28H365.8Q361.32,315,336,339.05t-69.21,24q-26.61,0-46.47-9.14a91.14,91.14,0,0,1-33-25.15A107.84,107.84,0,0,1,167.61,291,161.33,161.33,0,0,1,161,244.2a152.6,152.6,0,0,1,7.05-46.94A113.09,113.09,0,0,1,188.76,159a96.26,96.26,0,0,1,34-25.8q20.34-9.45,46.62-9.45a117.84,117.84,0,0,1,34,4.8,91.59,91.59,0,0,1,28.51,14.1,79.15,79.15,0,0,1,20.83,23.23,85.11,85.11,0,0,1,10.9,32.21H333.12Q328,173.72,310.53,161.53Z"/><path d="M456.91,224.31h9.26a57.71,57.71,0,0,0,17-2.48,43.46,43.46,0,0,0,14.22-7.27,35.08,35.08,0,0,0,9.76-12.08,36.41,36.41,0,0,0,3.64-16.54q0-18.85-11.91-28.28t-29.77-9.43a44.28,44.28,0,0,0-19.68,4.13,39.38,39.38,0,0,0-13.9,11.09,46.52,46.52,0,0,0-8.1,16.21,70.45,70.45,0,0,0-2.65,19.51H396.7a106.64,106.64,0,0,1,5.46-30.76,68.74,68.74,0,0,1,13.73-23.82A61.76,61.76,0,0,1,438.22,129q13.39-5.61,30.93-5.62a101,101,0,0,1,28.28,3.8,65.63,65.63,0,0,1,22.66,11.42,52.13,52.13,0,0,1,15.06,19.51q5.46,11.91,5.45,28.12a45.37,45.37,0,0,1-9.26,28.12,59.13,59.13,0,0,1-23.16,18.52v.67q21.51,4.63,31.93,20.18t10.42,36.71q0,17.55-6.45,30.93a64.47,64.47,0,0,1-17.37,22.33,73.85,73.85,0,0,1-25.64,13.4,107,107,0,0,1-31.26,4.47,100,100,0,0,1-32.42-5,66.5,66.5,0,0,1-24.81-14.72,64.27,64.27,0,0,1-15.71-24q-5.46-14.22-5.13-32.42h28.12q.66,22.83,13.23,37.22t36.72,14.39A60.53,60.53,0,0,0,489.33,334,50.4,50.4,0,0,0,505.54,325a42.24,42.24,0,0,0,15.22-33.24,45,45,0,0,0-4-19.35,41.76,41.76,0,0,0-26.3-22.83,66.55,66.55,0,0,0-19.69-2.81,136.62,136.62,0,0,0-16.87,1V224A15.39,15.39,0,0,0,456.91,224.31Z"/></g></g></svg>