<?xml version="1.0" encoding="utf-8"?>
<!-- Generator: Adobe Illustrator 25.1.0, SVG Export Plug-In . SVG Version: 6.00 Build 0)  -->
<svg version="1.1" id="icon" xmlns="http://www.w3.org/2000/svg" xmlns:xlink="http://www.w3.org/1999/xlink" x="0px" y="0px"
	 viewBox="0 0 16.2 24" style="enable-background:new 0 0 16.2 24;" xml:space="preserve">
<path d="M8.1,0L8.1,0C3.6,0,0,4,0,9v6c0,5,3.6,9,8.1,9l0,0c4.5,0,8.1-4,8.1-9V9C16.2,4,12.6,0,8.1,0z M14.1,14.5
	c0,4.1-2.7,7.4-6,7.4l0,0c-3.3,0-6-3.3-6-7.4v-5c0-4.1,2.7-7.4,6-7.4l0,0c3.3,0,6,3.3,6,7.4V14.5z"/>
<path id="scroll-1" d="M8.1,8.5h0.1c0.6,0,1.1,0.5,1.1,1.1v4.8c0,0.6-0.5,1.1-1.1,1.1H8.1c-0.6,0-1.1-0.5-1.1-1.1V9.6C6.9,9,7.4,8.5,8.1,8.5z"/>
</svg>
